# xmcd
#
# Track frame offsets: 
#        150
#        20527
#        40662
#        60274
#        72684
#        87661
#        103854
#        122689
#        138889
#        156697
#        173214
#        189007
#        207415
#        225829
#        246136
#
# Disc length: 3571 seconds
#
# Revision: 1
# Processed by: cddbd v1.5.2PL0 Copyright (c) Steve Scherf et al.
# Submitted via: ExactAudioCopy v1.0b3
#
DISCID=cb0df10f
DTITLE=ときのそら - Dreaming!
DYEAR=2019
DGENRE=Anime
TTITLE0=Dream☆Story
TTITLE1=ヒロイック・ヒロイン
TTITLE2=コトバカゼ
TTITLE3=ほしのふるにわ
TTITLE4=冴えない自分にラブソングを
TTITLE5=IMAGE source
TTITLE6=ブレンドキャラバン
TTITLE7=未練レコード
TTITLE8=海より深い空の下
TTITLE9=そんな雨の日には
TTITLE10=メトロナイト
TTITLE11=Wandering Days
TTITLE12=好き、泣いちゃいそうだ
TTITLE13=おかえり
TTITLE14=夢色アスタリスク (Dreaming! ver.)
EXTD=Producer/Director: 友人Ａ, あん肝 \nCief producer: プロデューサーＺ\nExecutive 
EXTD=Producer: 谷繁元昭\n\n[VTuber] 2017年より活動中のバーチャルアイドルによる1stフル
EXTT0=Lyrics,Music,Arrange: キノシタ \nGuest backing vocal: かしこまり 響アオ 富士葵 
EXTT0=YuNi
EXTT1=Lyrics,Music,Arrange: buzzG 
EXTT2=Lyrics,Music: 多田慎也 Arrange: 島田尚
EXTT3=Lyrics,Music,Arrange: 歩く人 
EXTT4=Lyrics,Music,Arrange: 石風呂
EXTT5=Lyrics,Music: 渡辺翔 Arrange: キタニタツヤ
EXTT6=Lyrics,Music: 渡辺翔 Arrange: 清水哲平
EXTT7=Lyrics,Music,Arrange: 40mP
EXTT8=Lyrics,Music,Arrange: アゴアニキ
EXTT9=Lyrics,Music,Arrange: はるまきごはん
EXTT10=Lyrics,Music,Arrange: 春野
EXTT11=Lyrics,Music,Arrange: Dios - シグナルＰ
EXTT12=Lyrics: まつもとななみ Music: 青木康平 Arrange: 青木康平, 藤原彩豊
EXTT13=Lyrics,Music,Arrange: 瀬名航
EXTT14=Lyrics,Music,Arrange: ていくる
PLAYORDER=
